<svg width="120" height="100" viewBox="0 0 120 100" fill="none" xmlns="http://www.w3.org/2000/svg">
<g clip-path="url(#clip0_34_8)">
<path d="M1.5 1L0 0H102.5L100 2.5L98 8L94 9.5L77.5 7L69 8L60 10L51.5 11L44 9.5L37 7L30 6L25.5 7.5H17L11 5.5L6 4.5L4.5 2.5L1.5 1Z" fill="#143210" stroke="#143210"/>
<path d="M0 2.5V0.5L3 2.5H4.5L9 4.5L13.5 5.5L19 7.5L28.5 6.5H37.5L41.5 7.5L46.5 10L51.5 11L59.5 10.5L65.5 8.5L71.5 8L76.5 6.5H82L84.5 8H90.5H95L98 6.5L100 3V2L100.5 1L102.5 0.5L101 4L99.5 10L98 12L90.5 12.5L83.5 10.5L78 11L73 10L68.5 12.5L59 14.5L49.5 13.5L41 11L34.5 10.5L31 10L26 10.5L20.5 10H15L10 9L7 7.5L3.5 5.5L1.5 3.5L0 2.5Z" fill="#A69C76" stroke="#A69C76"/>
<path d="M28.5 17.5L27 16.5H34H41L40 17.5L36.5 18.5H31L28.5 17.5Z" fill="#593620"/>
<path d="M34 16.5H41L40 17.5L36.5 18.5H31L28.5 17.5L27 16.5H34ZM34 16.5V7.5" stroke="#5B3620"/>
<path d="M34.5 14H40.5L34.5 8V14Z" fill="#B8B8B8" stroke="#B8B8B8"/>
<path d="M34.5 14H40.5L34.5 8V14Z" fill="#B8B8B8" stroke="#B8B8B8"/>
<path d="M29.5 14.5L33 14V13.5V7L29.5 14.5Z" fill="#B8B8B8" stroke="#B8B8B8"/>
<path d="M55.5 25.5L54 24.5H61H68L67 25.5L63.5 26.5H58L55.5 25.5Z" fill="#593620"/>
<path d="M61 24.5H68L67 25.5L63.5 26.5H58L55.5 25.5L54 24.5H61ZM61 24.5V15.5" stroke="#5B3620"/>
<path d="M61.5 22H67.5L61.5 16V22Z" fill="#B8B8B8" stroke="#B8B8B8"/>
<path d="M61.5 22H67.5L61.5 16V22Z" fill="#B8B8B8" stroke="#B8B8B8"/>
<path d="M56.5 22.5L60 22V21.5V15L56.5 22.5Z" fill="#B8B8B8" stroke="#B8B8B8"/>
</g>
<defs>
<clipPath id="clip0_34_8">
<rect width="120" height="100" fill="white"/>
</clipPath>
</defs>
</svg>
