<svg width="120" height="100" viewBox="0 0 120 100" fill="none" xmlns="http://www.w3.org/2000/svg">
<g clip-path="url(#clip0_12_168)">
<path d="M1.5 1L0 0H128.5V0.5L128 2.5L123.5 6.5L117.5 9.5L112 11.5L104 12L96.5 11.5L87 7.5L77.5 7L69 8L60 10L51.5 11L44 9.5L37 7L30 6L25.5 7.5H17L11 5.5L6 4.5L4.5 2.5L1.5 1Z" fill="#152C12" stroke="#152C12"/>
<path d="M3 2.5L0 0L1.5 1L4 2.5L8 3L16 5.5L21.5 6.5L27.5 5.5H34.5H41.5L47 7L58.5 9L63 8.5L71 7H76.5H82.5H87.5L93 9L96 10.5L101 11H107L112 9L116 7H119.5L120.5 8L120 9L119 12L114.5 13.5L109.5 15.5H102L95 14.5L87.5 11.5L82.5 10H75L66 11L61 12.5L54.5 13H50.5L44.5 11.5L37.5 9L31.5 8.5L29.5 9L21.5 10L17.5 10.5L15 9L11 8L8.5 7L6 5.5L4 4L3 2.5Z" fill="#A69C76" stroke="#A69C76"/>
</g>
<defs>
<clipPath id="clip0_12_168">
<rect width="120" height="100" fill="white"/>
</clipPath>
</defs>
</svg>
