<svg width="120" height="100" viewBox="0 0 120 100" fill="none" xmlns="http://www.w3.org/2000/svg">
<g clip-path="url(#clip0_34_5)">
<path d="M65 79L51.5 82L43 85.5L34.5 87.5L27.5 89L21.5 93L8.5 96L1.5 97L-7 99.5H120V84L114.5 82.5L109.5 82H104.5C102.167 81.6667 97.5 80.9 97.5 80.5C97.5 80.1 92.1667 80 89.5 80L79 79H65Z" fill="#152C12" stroke="#152C12"/>
<path d="M86.5 72L84 81.5V83.5H94.5L92.5 72L94.5 67.5H85.5L86.5 72Z" fill="#424642" stroke="#424642"/>
<ellipse cx="89.1111" cy="65.5" rx="2" ry="1.5" fill="#D9D9D9"/>
<ellipse cx="92.1111" cy="64" rx="3" ry="2" fill="#D9D9D9"/>
<ellipse cx="94.5" cy="63" rx="2.5" ry="2" fill="#D9D9D9"/>
</g>
<defs>
<clipPath id="clip0_34_5">
<rect width="120" height="100" fill="white"/>
</clipPath>
</defs>
</svg>
