<svg width="120" height="100" viewBox="0 0 120 100" fill="none" xmlns="http://www.w3.org/2000/svg">
<g clip-path="url(#clip0_34_2)">
<path d="M71.5 90L83 92.5L106.262 101.708L109.078 101.756L124 100L123.5 102L109.078 101.756L107 102L106.262 101.708L94 101.5H-8V100V97L-2.5 94.5L-3.5 88L-2.5 83.5L7.5 82L14.5 80.5L25 80L38.5 78L54 80L62.5 83.5L71.5 90Z" fill="#143210" stroke="#143210"/>
<path d="M23 73.5L21 80.5H22.5L23 75L24.5 71L26 68V67.5L24.5 70.5L23 73.5Z" fill="#423102"/>
<path d="M23 73.5L21 80.5H22.5L23 75L24.5 71L26 68V67.5L24.5 70.5L23 73.5Z" fill="#423102"/>
<path d="M39.5 75L38.5 78.5L40.5 79V74.5L41 72.5L41.5 70L42.5 66.5L43 65L42 67L40.5 71.5L39.5 75Z" fill="#423102"/>
<path d="M39.5 75L38.5 78.5L40.5 79V74.5L41 72.5L41.5 70L42.5 66.5L43 65L42 67L40.5 71.5L39.5 75Z" fill="#423102"/>
<path d="M23 73.5L21 80.5H22.5L23 75L24.5 71L26 68V67.5L24.5 70.5L23 73.5Z" stroke="#423102"/>
<path d="M39.5 75L38.5 78.5L40.5 79V74.5L41 72.5L41.5 70L42.5 66.5L43 65L42 67L40.5 71.5L39.5 75Z" stroke="#423102"/>
<path d="M44 65.5L43 64.5H41L38 66.5L36 67L37 65L40.5 63.5L43 64.5L41.5 62.5H38.5H36.5L37 62L39.5 60.5L42.5 61L43.5 63.5L44 60.5L42.5 57.5L44 58L45 60V61.5L43.5 63.5L46 62H48.5L50.5 64.5V66.5L49 65.5L47.5 63.5H46L43 64.5H45L46 67.5V69V69.5L45 68.5L44 65.5Z" fill="#0F6107"/>
<path d="M43 64.5L44 65.5L45 68.5L46 69.5V69V67.5L45 64.5H43ZM43 64.5L40.5 63.5L37 65L36 67L38 66.5L41 64.5H43ZM43 64.5L41.5 62.5H38.5H36.5L37 62L39.5 60.5L42.5 61L43.5 63.5M43 64.5L43.5 63.5M43 64.5L46 63.5H47.5L49 65.5L50.5 66.5V64.5L48.5 62H46L43.5 63.5M43.5 63.5L44 60.5L42.5 57.5L44 58L45 60V61.5L43.5 63.5Z" stroke="#0F6107"/>
<path d="M44 65.5L43 64.5H41L38 66.5L36 67L37 65L40.5 63.5L43 64.5L41.5 62.5H38.5H36.5L37 62L39.5 60.5L42.5 61L43.5 63.5L44 60.5L42.5 57.5L44 58L45 60V61.5L43.5 63.5L46 62H48.5L50.5 64.5V66.5L49 65.5L47.5 63.5H46L43 64.5H45L46 67.5V69V69.5L45 68.5L44 65.5Z" fill="#0F6107"/>
<path d="M43 64.5L44 65.5L45 68.5L46 69.5V69V67.5L45 64.5H43ZM43 64.5L40.5 63.5L37 65L36 67L38 66.5L41 64.5H43ZM43 64.5L41.5 62.5H38.5H36.5L37 62L39.5 60.5L42.5 61L43.5 63.5M43 64.5L43.5 63.5M43 64.5L46 63.5H47.5L49 65.5L50.5 66.5V64.5L48.5 62H46L43.5 63.5M43.5 63.5L44 60.5L42.5 57.5L44 58L45 60V61.5L43.5 63.5Z" stroke="#0F6107"/>
<path d="M27 68L26 67H24L21 69L19 69.5L20 67.5L23.5 66L26 67L24.5 65H21.5H19.5L20 64.5L22.5 63L25.5 63.5L26.5 66L27 63L25.5 60L27 60.5L28 62.5V64L26.5 66L29 64.5H31.5L33.5 67V69L32 68L30.5 66H29L26 67H28L29 70V71.5V72L28 71L27 68Z" fill="#0F6107"/>
<path d="M26 67L27 68L28 71L29 72V71.5V70L28 67H26ZM26 67L23.5 66L20 67.5L19 69.5L21 69L24 67H26ZM26 67L24.5 65H21.5H19.5L20 64.5L22.5 63L25.5 63.5L26.5 66M26 67L26.5 66M26 67L29 66H30.5L32 68L33.5 69V67L31.5 64.5H29L26.5 66M26.5 66L27 63L25.5 60L27 60.5L28 62.5V64L26.5 66Z" stroke="#0F6107"/>
<path d="M16.75 48L15.75 48.25V50.2222H14L19 51.5556L14.75 52.2222H17H20.25V53H20.75L21.5 52.5H24.5H27L28 52.2222L26 51.25L25.25 50.2222L21.25 49.75L16 49.5L16.75 48Z" fill="#C7C3C3" stroke="#C7C3C3"/>
<path d="M25 51L26.5 51.5L26 51" stroke="black"/>
</g>
<defs>
<clipPath id="clip0_34_2">
<rect width="120" height="100" fill="white"/>
</clipPath>
</defs>
</svg>
