<svg width="120" height="100" viewBox="0 0 120 100" fill="none" xmlns="http://www.w3.org/2000/svg">
<g clip-path="url(#clip0_34_5)">
<path d="M65 79L51.5 82L43 85.5L34.5 87.5L27.5 89L21.5 93L8.5 96L1.5 97L-7 99.5H120V84L114.5 82.5L109.5 82H104.5C102.167 81.6667 97.5 80.9 97.5 80.5C97.5 80.1 92.1667 80 89.5 80L79 79H65Z" fill="#152C12" stroke="#152C12"/>
<path d="M102.5 72L100 81.5V83.5H110.5L108.5 72L110.5 67.5H101.5L102.5 72Z" fill="#424642" stroke="#424642"/>
<ellipse cx="105.111" cy="65.5" rx="2" ry="1.5" fill="#D9D9D9"/>
<ellipse cx="108.111" cy="64" rx="3" ry="2" fill="#D9D9D9"/>
<ellipse cx="110.5" cy="63" rx="2.5" ry="2" fill="#D9D9D9"/>
<path d="M88 70.5C88 75.1944 84.1944 79 79.5 79C74.8056 79 71 75.1944 71 70.5C71 65.8056 74.8056 62 79.5 62C84.1944 62 88 65.8056 88 70.5Z" fill="#4670DA"/>
<path d="M85.5 77L71.5 68L73 65L80.25 69.5L87.5 74.5L85.5 77Z" fill="#FDF6F6" stroke="#EAAF0B"/>
<path d="M88 70.5C88 75.1944 84.1944 79 79.5 79C74.8056 79 71 75.1944 71 70.5C71 65.8056 74.8056 62 79.5 62C84.1944 62 88 65.8056 88 70.5Z" fill="#4670DA"/>
<path d="M85.5 77L71.5 68L73 65L80.25 69.5L87.5 74.5L85.5 77Z" fill="#FDF6F6" stroke="#EAAF0B"/>
<path d="M77 81.5L78 79H79.5L80.5 81.5H77Z" fill="#484444" stroke="#424642"/>
</g>
<defs>
<clipPath id="clip0_34_5">
<rect width="120" height="100" fill="white"/>
</clipPath>
</defs>
</svg>
