<svg width="120" height="100" viewBox="0 0 120 100" fill="none" xmlns="http://www.w3.org/2000/svg">
<g clip-path="url(#clip0_2_2)">
<path d="M71.5 90L83 92.5L106.262 101.708L109.078 101.756L124 100L123.5 102L109.078 101.756L107 102L106.262 101.708L94 101.5H-8V100V97L-2.5 94.5L-3.5 88L-2.5 83.5L7.5 82L14.5 80.5L25 80L38.5 78L54 80L62.5 83.5L71.5 90Z" fill="#143210"/>
<path d="M123.5 102L94 101.5H-8V100V97L-2.5 94.5L-3.5 88L-2.5 83.5L7.5 82L14.5 80.5L25 80L38.5 78L54 80L62.5 83.5L71.5 90L83 92.5L107 102L124 100L123.5 102Z" stroke="#143210"/>
</g>
<defs>
<clipPath id="clip0_2_2">
<rect width="120" height="100" fill="white"/>
</clipPath>
</defs>
</svg>
